<svg width="277" height="255" viewBox="0 0 277 255" fill="none" xmlns="http://www.w3.org/2000/svg">
<g opacity="0.7" filter="url(#filter0_f_210_60)">
<path d="M196.914 40.3282L153.149 57.2163C120.744 50.375 89.8911 66.536 84.2381 93.313C78.5851 120.09 39.8572 72.6896 40.9916 104.057L79.6327 169.343C141.074 248.019 238.261 210.593 236.423 159.779C234.585 108.964 229.32 47.1695 196.914 40.3282Z" fill="#2C4472" fill-opacity="0.24"/>
</g>
<g opacity="0.45" filter="url(#filter1_f_210_60)">
<path d="M195.067 47.7321H106.142C71.7629 47.7321 43.8936 77.8727 43.8936 115.053C43.8936 152.233 71.7629 182.374 106.142 182.374H195.067C229.446 182.374 257.315 152.233 257.315 115.053C257.315 77.8727 229.446 47.7321 195.067 47.7321Z" fill="#192D55" fill-opacity="0.19"/>
</g>
<g filter="url(#filter2_d_210_60)">
<path d="M175.671 34.8409H85.4321C52.2071 34.8409 25.2729 61.775 25.2729 95C25.2729 128.225 52.2071 155.159 85.4321 155.159H175.671C208.896 155.159 235.83 128.225 235.83 95C235.83 61.775 208.896 34.8409 175.671 34.8409Z" fill="url(#paint0_linear_210_60)"/>
<path d="M179.968 142.268C203.7 142.268 222.939 121.105 222.939 95C222.939 68.8946 203.7 47.7321 179.968 47.7321C156.236 47.7321 136.997 68.8946 136.997 95C136.997 121.105 156.236 142.268 179.968 142.268Z" fill="url(#paint1_linear_210_60)"/>
<path d="M81.1349 142.268C104.867 142.268 124.106 121.105 124.106 95C124.106 68.8946 104.867 47.7321 81.1349 47.7321C57.4028 47.7321 38.1641 68.8946 38.1641 95C38.1641 121.105 57.4028 142.268 81.1349 142.268Z" fill="url(#paint2_linear_210_60)"/>
</g>
<defs>
<filter id="filter0_f_210_60" x="0.967285" y="0.328186" width="275.481" height="254.321" filterUnits="userSpaceOnUse" color-interpolation-filters="sRGB">
<feFlood flood-opacity="0" result="BackgroundImageFix"/>
<feBlend mode="normal" in="SourceGraphic" in2="BackgroundImageFix" result="shape"/>
<feGaussianBlur stdDeviation="20" result="effect1_foregroundBlur_210_60"/>
</filter>
<filter id="filter1_f_210_60" x="31.8936" y="35.7321" width="237.422" height="158.642" filterUnits="userSpaceOnUse" color-interpolation-filters="sRGB">
<feFlood flood-opacity="0" result="BackgroundImageFix"/>
<feBlend mode="normal" in="SourceGraphic" in2="BackgroundImageFix" result="shape"/>
<feGaussianBlur stdDeviation="6" result="effect1_foregroundBlur_210_60"/>
</filter>
<filter id="filter2_d_210_60" x="25.2729" y="34.8409" width="214.557" height="124.318" filterUnits="userSpaceOnUse" color-interpolation-filters="sRGB">
<feFlood flood-opacity="0" result="BackgroundImageFix"/>
<feColorMatrix in="SourceAlpha" type="matrix" values="0 0 0 0 0 0 0 0 0 0 0 0 0 0 0 0 0 0 127 0" result="hardAlpha"/>
<feOffset dx="2" dy="2"/>
<feGaussianBlur stdDeviation="1"/>
<feColorMatrix type="matrix" values="0 0 0 0 0 0 0 0 0 0 0 0 0 0 0 0 0 0 0.071 0"/>
<feBlend mode="normal" in2="BackgroundImageFix" result="effect1_dropShadow_210_60"/>
<feBlend mode="normal" in="SourceGraphic" in2="effect1_dropShadow_210_60" result="shape"/>
</filter>
<linearGradient id="paint0_linear_210_60" x1="143.443" y1="180.225" x2="108.35" y2="22.6658" gradientUnits="userSpaceOnUse">
<stop stop-color="#FBFCFF"/>
<stop offset="0.108056" stop-color="#929CAF"/>
<stop offset="0.329864" stop-color="#AFB5C1"/>
<stop offset="0.755208" stop-color="#F4F7FD"/>
<stop offset="0.942002" stop-color="white"/>
</linearGradient>
<linearGradient id="paint1_linear_210_60" x1="267.199" y1="117.121" x2="126.972" y2="90.9529" gradientUnits="userSpaceOnUse">
<stop stop-color="white"/>
<stop offset="1" stop-color="#969FB0"/>
</linearGradient>
<linearGradient id="paint2_linear_210_60" x1="16.6787" y1="74.2308" x2="132.13" y2="109.492" gradientUnits="userSpaceOnUse">
<stop offset="0.194457" stop-color="#CFD5DD"/>
<stop offset="1" stop-color="#F9F9F9"/>
</linearGradient>
</defs>
</svg>
